<svg width="25" height="24" viewBox="0 0 25 24" fill="none" xmlns="http://www.w3.org/2000/svg">
<g clip-path="url(#clip0)">
<path d="M18.749 0.00520161L15.507 0C11.8649 0 9.51114 2.41485 9.51114 6.15247V8.98917H6.25155C5.96988 8.98917 5.74179 9.21752 5.74179 9.49919V13.6092C5.74179 13.8909 5.97014 14.119 6.25155 14.119H9.51114V24.49C9.51114 24.7716 9.73923 24.9997 10.0209 24.9997H14.2737C14.5554 24.9997 14.7835 24.7714 14.7835 24.49V14.119H18.5947C18.8764 14.119 19.1045 13.8909 19.1045 13.6092L19.106 9.49919C19.106 9.36395 19.0522 9.23443 18.9568 9.13872C18.8613 9.04301 18.7313 8.98917 18.596 8.98917H14.7835V6.58446C14.7835 5.42866 15.0589 4.84192 16.5645 4.84192L18.7484 4.84114C19.0298 4.84114 19.2579 4.61279 19.2579 4.33138V0.51496C19.2579 0.233813 19.0301 0.00572178 18.749 0.00520161Z" fill="#EADECF"/>
</g>
<defs>
<clipPath id="clip0">
<rect width="25" height="24.9997" fill="white"/>
</clipPath>
</defs>
</svg>
