<svg width="25" height="24" viewBox="0 0 25 24" fill="none" xmlns="http://www.w3.org/2000/svg">
<path d="M18.1006 -1H6.89891C3.09485 -1 0 2.095 0 5.89906V17.1008C0 20.905 3.09485 23.9999 6.89891 23.9999H18.1006C21.905 23.9999 24.9999 20.9049 24.9999 17.1008V5.89906C25 2.095 21.905 -1 18.1006 -1ZM22.7819 17.1008C22.7819 19.6819 20.6819 21.7817 18.1008 21.7817H6.89891C4.31792 21.7819 2.21811 19.6819 2.21811 17.1008V5.89906C2.21811 3.31806 4.31792 1.21811 6.89891 1.21811H18.1006C20.6818 1.21811 22.7817 3.31806 22.7817 5.89906V17.1008H22.7819Z" fill="#EADECF"/>
<path d="M12.4999 5.05847C8.94786 5.05847 6.05811 7.94822 6.05811 11.5003C6.05811 15.0522 8.94786 17.9418 12.4999 17.9418C16.052 17.9418 18.9418 15.0522 18.9418 11.5003C18.9418 7.94822 16.052 5.05847 12.4999 5.05847ZM12.4999 15.7236C10.1711 15.7236 8.27621 13.829 8.27621 11.5002C8.27621 9.17114 10.1709 7.27643 12.4999 7.27643C14.8289 7.27643 16.7237 9.17114 16.7237 11.5002C16.7237 13.829 14.8288 15.7236 12.4999 15.7236Z" fill="#EADECF"/>
<path d="M19.2119 3.17761C18.7846 3.17761 18.3648 3.35062 18.063 3.65377C17.7597 3.95543 17.5853 4.37539 17.5853 4.80422C17.5853 5.23173 17.7598 5.65154 18.063 5.95468C18.3646 6.25635 18.7846 6.43084 19.2119 6.43084C19.6408 6.43084 20.0592 6.25635 20.3624 5.95468C20.6655 5.65154 20.8385 5.23158 20.8385 4.80422C20.8385 4.37539 20.6655 3.95543 20.3624 3.65377C20.0607 3.35062 19.6408 3.17761 19.2119 3.17761Z" fill="#EADECF"/>
</svg>
