<svg width="25" height="25" viewBox="0 0 25 25" fill="none" xmlns="http://www.w3.org/2000/svg">
<path d="M6.00318 13.5849C6.03446 13.5069 6.34746 12.3041 6.36939 12.2227C5.88073 11.4874 5.3379 9.07955 5.75427 7.12509C6.20345 4.25739 9.24243 2.84767 12.1117 2.84767V2.84233C15.7039 2.84462 18.3929 4.84333 18.3958 8.28552C18.3981 10.9798 16.7749 14.5412 14.0034 14.5412C14.0026 14.5412 14.002 14.5412 14.0013 14.5412C13.0121 14.5412 11.7597 14.0926 11.4313 13.652C11.0523 13.1443 10.9592 12.5177 11.1595 11.8483C11.6503 10.2818 12.2761 8.4053 12.3491 7.15408C12.4168 5.97324 11.5789 5.20496 10.4923 5.20496C9.67463 5.20496 8.61262 5.67989 8.08333 7.01447C7.64617 8.12321 7.65552 9.28402 8.11194 10.5629C8.2899 11.0628 7.32306 14.3219 7.01331 15.3831C6.2437 18.0195 5.19008 21.3551 5.41534 23.2126L5.63277 25L6.72492 23.5687C8.2363 21.5902 9.79899 16.4724 10.2154 15.2271C11.4464 16.8213 14.0098 16.8671 14.3087 16.8671C17.9798 16.8671 22.1426 13.2217 22.0245 8.14819C21.9209 3.69892 18.6647 0 12.8139 0V0.00572207C7.24868 0.00572207 4.00047 2.97623 3.20529 6.72951C2.47707 10.2097 4.0966 12.8584 6.00318 13.5849Z" fill="#EADECF"/>
</svg>
